<svg width="77" height="24" viewBox="0 0 77 24" fill="none" xmlns="http://www.w3.org/2000/svg">
<path d="M24.0583 5.75311C23.9569 4.89144 23.0446 4.38458 22.2843 4.76473C21.7774 5.01816 21.6 5.44899 21.6 5.9812C21.6 7.47645 21.5746 8.94635 21.5746 10.4416C21.5746 12.0382 21.5493 13.6348 21.6 15.2061C21.6253 16.0931 21.2452 16.4226 20.3582 16.3212C20.2821 16.3212 20.1808 16.2959 20.1047 16.2705C19.8006 16.1945 19.6486 16.0171 19.5725 15.713C19.5219 15.4596 19.4965 15.2061 19.4965 14.9527C19.4965 11.9875 19.4965 9.04773 19.4965 6.08257C19.4965 5.95586 19.4965 5.82914 19.4965 5.72777C19.3951 4.89144 18.5081 4.40992 17.7478 4.76473C17.2156 5.01816 17.0382 5.47434 17.0382 6.05723C17.0382 8.13537 17.0129 10.2389 17.0129 12.317C17.0129 13.28 17.0129 14.2431 17.0382 15.2061C17.0636 15.9664 16.9875 16.1185 16.354 16.3466C15.3402 16.3466 14.3265 16.3466 13.3381 16.3466C13.3381 16.2705 13.3381 16.2705 13.3381 16.2452C13.4395 16.0931 13.5409 15.9411 13.6422 15.8144C14.4279 14.8006 14.808 13.6095 14.9094 12.3677C15.0868 10.3909 14.5292 8.56621 13.1861 7.0963C11.2853 5.01816 8.90306 4.28321 6.14065 4.94213C2.54192 5.77846 0.311716 9.35185 0.919952 12.8745C1.19873 14.5219 1.93368 15.8904 3.20084 17.0055C4.23991 17.9178 5.45638 18.4501 6.82491 18.6781C6.97697 18.7035 7.15438 18.6528 7.25575 18.8555C6.31805 19.7932 5.4057 20.7309 4.468 21.6686L4.44266 21.694C4.06251 22.1755 4.08785 22.8598 4.49334 23.3159C4.92418 23.7721 5.60844 23.8482 6.11531 23.468C6.24202 23.3666 6.36874 23.2653 6.47011 23.1385C7.8133 21.7954 9.18183 20.4522 10.525 19.109C10.7278 18.9062 10.9559 18.8049 11.2346 18.8302C11.8429 18.8555 12.4258 18.8809 13.034 18.8809C16.0752 18.8809 19.091 18.8555 22.1322 18.8555C22.3349 18.8555 22.563 18.8555 22.7658 18.8555C23.6021 18.8302 24.0836 18.3233 24.0836 17.487C24.0836 16.524 24.109 15.5609 24.109 14.5979C24.109 11.7594 24.109 8.92101 24.0836 6.08257C24.0583 5.95586 24.0836 5.85449 24.0583 5.75311ZM3.22618 11.7088C3.22618 9.3265 5.30432 7.04562 7.83864 7.0963C10.373 7.02027 12.4764 9.30116 12.4764 11.7088C12.4764 14.1671 10.3223 16.3212 7.86399 16.3212C5.38035 16.3719 3.22618 14.1924 3.22618 11.7088Z" fill="#28C4CC"/>
<path d="M49.3517 12.1899C49.1743 12.342 48.9462 12.2913 48.7434 12.2913C42.4837 12.2913 36.2239 12.2913 29.9641 12.2913C29.8628 12.2913 29.7867 12.2913 29.6854 12.2913C29.2799 12.2913 29.2799 12.2913 29.2038 12.6968C29.1278 13.153 28.9758 13.6092 28.7984 14.04C28.7477 14.1667 28.6716 14.2934 28.6463 14.5215C28.7984 14.5215 28.8997 14.5469 29.0264 14.5469C35.641 14.5469 42.2302 14.5469 48.8448 14.5469C49.225 14.5469 49.6051 14.4962 49.9346 14.3441C51.3031 13.8119 52.0634 12.4687 51.8353 11.0748C51.5819 9.50357 50.2387 8.54053 48.7941 8.54053C42.1542 8.56587 35.5396 8.54053 28.8997 8.56587C28.7477 8.56587 28.5956 8.51518 28.4689 8.61656C28.4182 8.74327 28.5196 8.8193 28.5703 8.92068C28.8237 9.4022 29.0264 9.90906 29.1278 10.4413C29.1785 10.6947 29.2799 10.8214 29.5333 10.7707C29.6347 10.7454 29.7361 10.7707 29.8374 10.7707C36.0465 10.7707 42.2556 10.7707 48.49 10.7707C48.6674 10.7707 48.8195 10.7707 48.9969 10.7961C49.301 10.8468 49.5798 11.0748 49.6305 11.3536C49.7065 11.6831 49.6305 11.9619 49.3517 12.1899Z" fill="#C5C7C9"/>
<path d="M76.8473 10.4667C76.163 7.19739 73.3246 4.76445 69.7512 4.81513C68.1799 4.84048 66.7353 5.37268 65.4935 6.38641C63.6941 7.88166 62.8578 9.83309 62.9085 12.114C62.9592 13.5585 63.4154 14.9017 64.3024 16.0675C64.3784 16.1689 64.5051 16.2449 64.4798 16.4477C63.9222 16.4477 63.39 16.4477 62.8325 16.4477C62.2749 16.4477 61.7174 16.473 61.1598 16.4223H61.1345C61.0838 16.3716 61.0585 16.3209 60.9824 16.3463C60.653 16.0168 60.7036 15.586 60.6783 15.1552C60.6783 12.19 60.653 9.22485 60.653 6.2597C60.653 6.05695 60.653 5.87955 60.6023 5.6768C60.4502 4.99254 59.7406 4.58704 59.0817 4.78979C58.4734 4.96719 58.1693 5.39803 58.1693 6.10764C58.1693 9.12348 58.1693 12.1393 58.144 15.1552C58.144 16.2956 57.8906 16.5237 56.6994 16.4983C56.2686 16.4983 56.0658 16.2956 55.9898 15.8901C55.9391 15.6874 55.9391 15.51 55.9391 15.3072C55.9391 14.1921 55.9391 13.0517 55.9391 11.9366C55.9391 11.6578 55.9645 11.4044 55.8884 11.1256C55.635 8.54058 54.3172 6.69053 52.0616 5.47406C50.9465 4.86582 49.7301 4.66307 48.4629 4.66307C41.5189 4.66307 34.5748 4.66307 27.6308 4.66307C27.5041 4.66307 27.352 4.63773 27.2253 4.68842C27.1746 4.68842 27.0986 4.71376 27.0479 4.71376C26.4143 4.94185 26.1102 5.47406 26.2116 6.10764C26.3129 6.66519 26.7945 7.07068 27.4281 7.07068C27.6561 7.07068 27.8842 7.07068 28.087 7.04533C28.239 7.04533 28.4164 7.07068 28.5685 7.07068C31.1028 7.07068 33.6371 7.07068 36.1714 7.07068C40.2517 7.07068 44.332 7.07068 48.4122 7.07068C49.6033 7.07068 50.6677 7.3748 51.6054 8.05906C53.7343 9.65568 54.1398 12.6462 52.3404 14.6736C51.352 15.7887 50.0849 16.3463 48.5643 16.3463C41.6963 16.3463 34.8536 16.3463 27.9856 16.3463C27.8589 16.3463 27.7575 16.3463 27.6308 16.3463C27.5548 16.3463 27.4787 16.3209 27.4027 16.3209C26.6678 16.3209 26.1355 16.8278 26.1102 17.5374C26.0849 18.2217 26.6424 18.7792 27.352 18.8046C27.5548 18.8046 27.7575 18.7792 27.9856 18.7792C28.1123 18.7792 28.2644 18.8046 28.3911 18.8046C35.107 18.8046 41.823 18.8046 48.5643 18.8046C48.8177 18.8046 49.0711 18.8046 49.3246 18.7792C50.8198 18.6272 52.163 18.1203 53.3288 17.1319C53.5062 17.284 53.4048 17.4614 53.4048 17.6388C53.4302 18.1963 53.6076 18.6525 54.1398 18.9313C54.3679 19.0327 54.6213 19.058 54.8747 19.058C56.3953 19.058 57.8906 19.058 59.4111 19.058C61.8441 19.058 64.3024 19.0327 66.7353 19.0073C67.8251 19.0073 68.9148 18.9566 70.0046 18.9566C70.1567 18.9566 70.3087 18.9313 70.4608 18.9059C70.8409 18.9313 71.1957 18.8046 71.5759 18.7285C75.352 17.8669 77.5822 14.0147 76.8473 10.4667ZM70.0046 16.473C67.4703 16.5237 65.3668 14.3949 65.3415 11.9366C65.3161 9.35156 67.4703 7.29877 69.8779 7.24808C72.3615 7.19739 74.5664 9.27554 74.5917 11.8099C74.6171 14.2935 72.5389 16.473 70.0046 16.473Z" fill="#28C4CC"/>
<path d="M22.5878 20.7052C21.7768 20.5025 21.1179 20.8826 20.5857 21.8457C20.0281 20.8573 19.3692 20.5025 18.5582 20.7052C17.8233 20.908 17.3164 21.5416 17.3164 22.2765C17.3164 23.0115 17.8233 23.6957 18.5329 23.8731C18.8877 23.9745 19.2425 23.9492 19.5973 23.7971C20.1042 23.5944 20.3829 23.1889 20.5857 22.7073C21.0925 23.6957 21.7261 24.0759 22.5878 23.8731C23.3227 23.7211 23.855 23.0368 23.855 22.2765C23.8803 21.5669 23.3481 20.908 22.5878 20.7052Z" fill="#28C4CC"/>
<path d="M59.2099 20.756C58.3736 20.5786 57.664 20.9588 57.2078 21.8965C56.6503 20.9081 55.9914 20.5533 55.1804 20.756C54.4961 20.9081 53.9892 21.5417 53.9386 22.2513C53.9132 23.0116 54.344 23.6705 55.0537 23.9239C55.4085 24.0506 55.7633 24.0506 56.1181 23.9239C56.6503 23.7465 56.9797 23.3664 57.1825 22.8088C57.7907 23.8479 58.4496 24.1774 59.286 23.9493C60.0463 23.7212 60.5024 23.0876 60.4771 22.302C60.4518 21.5417 59.9196 20.9081 59.2099 20.756Z" fill="#28C4CC"/>
<path d="M69.7768 3.26927C70.6892 3.26927 71.4495 2.50898 71.4241 1.62196C71.4241 0.734953 70.6892 0 69.7768 0C68.8645 0 68.1042 0.734953 68.1295 1.64731C68.1295 2.53432 68.8645 3.26927 69.7768 3.26927Z" fill="#28C4CC"/>
<path d="M14.2255 20.6548C13.3385 20.6548 12.6035 21.3897 12.6035 22.3021C12.6035 23.2144 13.3385 23.9747 14.2508 23.9494C15.1632 23.9241 15.8728 23.2144 15.8728 22.3021C15.8981 21.3897 15.1378 20.6548 14.2255 20.6548Z" fill="#28C4CC"/>
</svg>
